# xmcd
#
# Track frame offsets: 
#        150
#        12856
#        25329
#        38588
#        52038
#        63010
#        74122
#        88501
#        99983
#        113327
#        125563
#        138878
#        150404
#        163197
#        176427
#        188852
#        203487
#        215008
#        226911
#        240784
#        253993
#        266794
#        278208
#        292294
#        306175
#
# Disc length: 4234 seconds
#
# Revision: 1
# Processed by: cddbd v1.5.2PL0 Copyright (c) Steve Scherf et al.
# Submitted via: ExactAudioCopy v0.95a4
#
DISCID=60108819
DTITLE=Blind Boy Fuller - The Rough Guide to Blues Legend
DYEAR=2015
DGENRE=Blues
TTITLE0=Truckin' My Blues Away No 2 (Take 2)
TTITLE1=Thousand Woman Blues
TTITLE2=Mama Let Me Lay It On You
TTITLE3=Corrine What Makes You Treat Me So
TTITLE4=Get Your Yas Yas Out
TTITLE5=Flyin' Airplane Blues
TTITLE6=Weeping Willow
TTITLE7=Jivin' Woman Blues
TTITLE8=Bulldog Blues
TTITLE9=Twelve Gates To The City
TTITLE10=Step It Up And Go
TTITLE11=Baby Quit Your Low Down Ways
TTITLE12=Picollo Rag
TTITLE13=You Never Can Tell
TTITLE14=Lost Lover Blues
TTITLE15=Baby You Gotta Change You Mind
TTITLE16=Screaming And Crying Blues
TTITLE17=Tom Cat Blues
TTITLE18=Rag, Mama, Rag (Take 2)
TTITLE19=Walking My Troubles Away (Take 2)
TTITLE20=Untrue Blues
TTITLE21=Jitterbug Blues
TTITLE22=Homesick And Lonesome Blues
TTITLE23=(I Got W Woman Crazy For Me) She's Funny That Way
TTITLE24=Bye Bye Baby Blues
EXTD=
EXTT0=
EXTT1=
EXTT2=
EXTT3=
EXTT4=
EXTT5=
EXTT6=
EXTT7=
EXTT8=
EXTT9=
EXTT10=
EXTT11=
EXTT12=
EXTT13=
EXTT14=
EXTT15=
EXTT16=
EXTT17=
EXTT18=
EXTT19=
EXTT20=
EXTT21=
EXTT22=
EXTT23=
EXTT24=
PLAYORDER=
